<?xml version="1.0" encoding="iso-8859-1"?>
<!-- Generator: Adobe Illustrator 14.0.0, SVG Export Plug-In . SVG Version: 6.00 Build 43363)  -->
<!DOCTYPE svg PUBLIC "-//W3C//DTD SVG 1.1//EN" "http://www.w3.org/Graphics/SVG/1.1/DTD/svg11.dtd">
<svg version="1.1" id="&#x56FE;&#x5C42;_1" xmlns="http://www.w3.org/2000/svg" xmlns:xlink="http://www.w3.org/1999/xlink" x="0px"
	 y="0px" width="160px" height="55px" viewBox="0 0 160 55" style="enable-background:new 0 0 160 55;" xml:space="preserve">
<g>
	<g>
		<g>
			<path style="fill:#FFFFFF;" d="M96.896,14.714c0.625,0,0.938,0.28,0.938,0.837v1.105h12.051c0.534,0,0.802,0.357,0.802,1.071
				v5.322c0,0.558-0.268,0.837-0.802,0.837h-2.109c-0.646,0-0.971-0.279-0.971-0.837v-2.444H84.313v2.444
				c0,0.558-0.357,0.837-1.072,0.837h-1.941c-0.67,0-1.004-0.279-1.004-0.837v-5.322c0-0.714,0.268-1.071,0.803-1.071H93.55v-1.105
				c0-0.557,0.401-0.837,1.205-0.837H96.896z M105.6,24.289c0.536,0.513,0.491,1.059-0.134,1.639
				c-2.857,2.434-5.312,4.374-7.364,5.825h12.05c0.535,0,0.804,0.301,0.804,0.904v2.342c0,0.537-0.269,0.805-0.804,0.805H99.039
				c0.893,2.254,0.67,4.83-0.669,7.732c-0.648,1.137-1.674,1.852-3.08,2.143c-1.07,0.199-2.143,0.346-3.213,0.436
				c-0.669,0.066-1.071-0.191-1.204-0.771l-0.537-2.107c-0.155-0.805,0.156-1.205,0.937-1.205h2.277
				c0.535,0,0.938-0.313,1.205-0.939c0.669-2.074,0.669-3.836,0-5.287H81.5c-0.625,0-0.938-0.268-0.938-0.805v-2.342
				c0-0.604,0.313-0.904,0.938-0.904h11.782c-0.715-1.049-1.116-1.641-1.205-1.773c-0.38-0.537-0.335-0.938,0.134-1.205l1.74-1.072
				c0.537-0.401,0.981-0.368,1.339,0.101l0.402,0.569c1.204-0.624,2.409-1.484,3.614-2.577H86.051c-0.533,0-0.802-0.278-0.802-0.838
				v-1.94c0-0.692,0.269-1.038,0.802-1.038h15.934c0.356,0,0.759,0.134,1.206,0.401L105.6,24.289z"/>
		</g>
		<g>
			<path style="fill:#FFFFFF;" d="M143.317,23.685h-20.618v4.418c-0.135,6.426-1.251,11.471-3.349,15.131
				c-0.267,0.557-0.803,0.689-1.605,0.4l-2.01-1.072c-0.357-0.268-0.357-0.758,0-1.473c1.742-3.436,2.679-7.766,2.813-12.986V16.188
				c0-0.892,0.401-1.339,1.206-1.339h23.563c0.714,0,1.07,0.447,1.07,1.339v6.159C144.388,23.24,144.031,23.685,143.317,23.685z
				 M124.037,24.489h21.422c0.535,0,0.803,0.313,0.803,0.937v1.976c0,0.648-0.268,0.97-0.803,0.97h-3.48l2.945,2.945
				c0.356,0.447,0.312,0.848-0.134,1.205l-1.875,1.34c-0.445,0.357-0.893,0.313-1.338-0.135l-0.67-0.668l-5.222,0.668v2.008h8.168
				c0.534,0,0.801,0.314,0.801,0.938v1.977c0,0.646-0.267,0.969-0.801,0.969h-8.168v1.875h10.176c0.535,0,0.803,0.334,0.803,1.006
				v2.074c0,0.623-0.268,0.936-0.803,0.936h-23.564c-0.626,0-0.938-0.313-0.938-0.936v-2.074c0-0.672,0.313-1.006,0.938-1.006h9.237
				v-1.875h-7.497c-0.536,0-0.804-0.268-0.804-0.803v-2.109c0-0.646,0.268-0.971,0.804-0.971h7.497v-1.605l-7.096,0.67
				c-0.581,0.045-0.892-0.246-0.938-0.871l-0.268-2.209c-0.09-0.625,0.135-0.938,0.671-0.938l3.347-0.268l0.804-2.143h-4.018
				c-0.536,0-0.804-0.322-0.804-0.97v-1.976C123.233,24.801,123.501,24.489,124.037,24.489z M122.699,18.597v1.473h17.806v-1.473
				H122.699z M132.338,28.371l-0.804,1.875l6.026-0.67l-0.938-1.205H132.338z"/>
		</g>
		<g>
			<path style="fill:#FFFFFF;" d="M45.082,23.761c0.29-0.289,0.647-0.379,1.071-0.269c2.143,0.76,3.927,1.586,5.355,2.479
				c0.379,0.268,0.424,0.613,0.135,1.037l-1.072,1.875c-0.312,0.334-0.714,0.379-1.205,0.133c-1.606-0.758-3.347-1.561-5.221-2.409
				c-0.468-0.291-0.558-0.726-0.268-1.306L45.082,23.761z"/>
			<path style="fill:#FFFFFF;" d="M48.683,32.99c0.155-0.424,0.468-0.604,0.937-0.535l2.544,0.938
				c0.312,0.156,0.401,0.5,0.268,1.037c-0.915,3.883-2.165,7.309-3.749,10.275c-0.469,0.535-0.959,0.67-1.473,0.402l-2.276-1.072
				c-0.603-0.244-0.692-0.736-0.268-1.473C46.451,39.662,47.79,36.471,48.683,32.99z"/>
			<path style="fill:#FFFFFF;" d="M48.201,14.313c1.695,0.96,3.124,2.031,4.285,3.213c0.268,0.357,0.222,0.748-0.134,1.171
				l-1.339,1.406c-0.447,0.179-0.893,0.134-1.339-0.134c-1.228-0.937-2.611-1.93-4.15-2.979c-0.357-0.402-0.401-0.804-0.134-1.205
				l1.607-1.473C47.309,14.068,47.71,14.068,48.201,14.313z"/>
			<path style="fill:#FFFFFF;" d="M53.514,42.879c-0.229-0.652-0.053-1.082,0.528-1.285c3.064-1.037,5.812-2.73,8.242-5.076
				c-2.466-2.754-4.544-7.268-6.235-13.539c-0.211-0.722-0.124-1.117,0.265-1.185l2.166-0.711c0.494-0.271,0.811-0.045,0.951,0.676
				c1.516,4.921,3.487,8.936,5.917,12.049c2.536-4.152,4.332-8.529,5.389-13.131H54.783c-0.512-0.022-0.767-0.146-0.767-0.373
				v-3.553c-0.018-0.316,0.211-0.474,0.687-0.474h18.438c1.129-0.045,1.691,0.372,1.691,1.252
				c-0.723,6.792-2.968,13.076-6.736,18.853c3.188,2.367,5.865,3.879,8.031,4.533c0.986,0.361,1.303,0.926,0.951,1.693l-1.215,2.672
				c-0.529,0.43-1.075,0.531-1.639,0.307c-3.629-1.896-6.48-3.881-8.559-5.957c-2.518,2.551-5.688,4.58-9.51,6.092
				c-0.705,0.293-1.233,0.203-1.584-0.271L53.514,42.879z"/>
		</g>
	</g>
	<g>
		<polygon style="fill:#FF647C;" points="23.919,24.544 25.415,23.158 9.786,23.151 25.398,23.162 		"/>
		<polygon style="fill:#3FA9F5;" points="36.408,28.861 36.408,28.861 36.408,28.85 		"/>
		<polygon style="fill:#3FA9F5;" points="21.806,31.484 21.806,46.418 21.806,46.418 21.806,47.025 21.92,47.025 21.92,45.936 
			21.92,31.545 36.408,31.529 36.408,31.467 		"/>
		<polygon style="fill:#3FA9F5;" points="4.895,28.891 19.27,28.889 19.299,28.861 4.895,28.861 		"/>
		<polygon style="fill:#3FA9F5;" points="19.299,28.861 23.919,24.544 19.266,28.855 4.895,28.859 4.895,28.861 		"/>
		<polygon style="fill:#3FA9F5;" points="23.324,28.889 36.408,28.881 36.408,28.861 23.354,28.861 		"/>
		<polygon style="fill:#3FA9F5;" points="27.426,20.405 27.393,20.384 13.886,20.38 13.853,20.403 		"/>
		<path d="M39.44,30.645c-0.954,0-1.729-0.775-1.729-1.729V28.52h0.124v-2.405L20.599,13.786L3.363,26.115v2.405h0.093v0.396
			c0,0.953-0.775,1.729-1.728,1.729C0.775,30.645,0,29.869,0,28.916V24.41l18.627-13.323c-0.205-0.349-0.314-0.749-0.314-1.158
			c0-1.265,1.03-2.294,2.294-2.294c1.266,0,2.295,1.029,2.295,2.294c0,0.418-0.115,0.827-0.329,1.183L41.168,24.41v4.506
			C41.168,29.869,40.394,30.645,39.44,30.645L39.44,30.645z"/>
		<path style="fill:#DD4E42;" d="M4.866,31.352v15.709h10.818v-0.006h0.104v-2.217h3.458V31.361L4.866,31.352z M16.295,40.848H7.859
			V34.41h8.436V40.848z"/>
		<path style="fill:#DD4E42;" d="M21.808,31.434v14.492v1.1h-0.117v0.006h14.717V31.416L21.808,31.434z M33.571,40.848h-8.437V34.41
			h8.437V40.848z"/>
		<polygon points="24.369,28.547 30.911,22.814 27.018,20.066 14.446,20.041 9.87,23.491 24.548,23.498 19.176,28.52 19.166,28.52 
			19.136,28.549 4.847,28.551 4.847,31.814 18.918,31.822 18.918,44.42 15.34,44.42 15.34,47.365 22.146,47.365 22.146,46.76 
			22.147,46.76 22.147,31.822 36.506,31.807 36.506,28.541 		"/>
	</g>
</g>
</svg>
